<svg width="7" height="16" viewBox="0 0 7 16" fill="none" xmlns="http://www.w3.org/2000/svg">
<path d="M2.63471 0.707143C2.19695 1.14491 1.96347 1.72859 1.96347 2.37065L1.96348 12.0598C1.96348 12.8186 2.57635 13.4315 3.33514 13.4315C3.68535 13.4315 4.06475 13.2856 4.3274 13.0229C4.59006 12.7603 4.7068 12.41 4.73598 12.0306L4.73598 5.25989C4.73598 5.02642 4.56088 4.85131 4.3274 4.85131C4.09393 4.85131 3.91882 5.02642 3.91882 5.25989L3.91882 12.0306C3.91882 12.3225 3.65617 12.5852 3.36432 12.5852C3.07248 12.5852 2.80982 12.3225 2.80982 12.0307L2.80982 2.34146C2.839 1.49512 3.51024 0.82388 4.3274 0.82388C5.14456 0.82388 5.84499 1.5243 5.84499 2.34146L5.84499 12.0306C5.84499 13.4315 4.73598 14.5405 3.36432 14.5113C1.96348 14.5113 0.854472 13.4023 0.883657 12.0307L0.883655 5.25989C0.883655 5.02642 0.737734 4.82213 0.50426 4.82213C0.270785 4.82213 0.066495 4.96805 0.0664953 5.20152L0.0664952 5.25989L0.0664963 12.0307C0.0664966 13.8401 1.52571 15.3577 3.39351 15.3577C5.2613 15.3577 6.72052 13.8984 6.72052 12.0306L6.72051 2.34146C6.72051 1.05735 5.66988 0.00671922 4.38577 0.00671914C3.68535 0.00671966 3.07248 0.269379 2.63471 0.707143Z" fill="#757575"/>
</svg>
