<svg width="24" height="25" viewBox="0 0 24 25" fill="none" xmlns="http://www.w3.org/2000/svg">
<path d="M12 24.678C18.6572 24.678 24 19.2928 24 12.678C24 6.06314 18.6148 0.677978 12 0.677977C5.38516 0.677977 -2.18734e-06 6.06313 -2.76562e-06 12.678C-3.34391e-06 19.2928 5.34275 24.678 12 24.678ZM12 1.48363C18.1484 1.48363 23.1519 6.48717 23.1519 12.6356C23.1519 18.784 18.1484 23.7875 12 23.7875C5.85159 23.7875 0.848053 18.784 0.848054 12.6356C0.848055 6.48716 5.85159 1.48363 12 1.48363Z" fill="#595959"/>
<path d="M6.106 18.0631L9.71025 18.0631C10.0919 18.3599 10.5583 18.5295 11.0671 18.5295L15.1378 18.5295C16.0283 18.5295 16.7067 18.2327 17.258 17.6391C18.53 16.2398 18.2756 13.6532 18.2756 13.5684C18.2756 12.2539 16.8763 10.897 15.6042 10.897L13.9505 10.897L14.6714 8.73449C14.9258 7.80162 14.1625 6.99597 14.1201 6.95357C14.0353 6.86876 13.9505 6.82636 13.8233 6.82636C13.6961 6.82636 13.6113 6.86876 13.5265 6.95357L9.49823 11.6179C9.32862 11.7875 9.20141 12.0419 9.11661 12.2539L6.19081 12.2539C5.93639 12.2539 5.76678 12.4235 5.76678 12.678L5.76678 17.6391C5.68198 17.8511 5.89399 18.0631 6.106 18.0631ZM13.7385 7.88643C13.8233 8.05604 13.8657 8.22565 13.8233 8.43767L12.9329 11.1515L12.9329 11.3211L12.9329 11.4907C12.9329 11.5331 12.9753 11.5331 12.9753 11.5755L13.0177 11.6179C13.0177 11.6179 13.0601 11.6603 13.1025 11.6603C13.1449 11.6603 13.1449 11.7027 13.1873 11.7027L15.6042 11.7027C16.4099 11.7027 17.4276 12.7204 17.4276 13.5684C17.4276 13.6108 17.6396 15.9006 16.6219 17.003C16.2403 17.4271 15.7739 17.5967 15.1378 17.5967L11.0671 17.5967C10.2615 17.5967 9.71025 17.0454 9.71025 16.1974L9.71025 13.0596C9.71025 12.7204 9.83746 12.3387 10.0919 12.0843L13.7385 7.88643ZM6.53003 13.0596L8.86219 13.0596L8.86219 16.2398C8.86219 16.579 8.94699 16.8758 9.0318 17.1727L6.53003 17.1727L6.53003 13.0596Z" fill="#595959"/>
</svg>
