<svg width="24" height="24" viewBox="0 0 24 24" fill="none" xmlns="http://www.w3.org/2000/svg">
<path d="M12 0C5.34276 0 0 5.38516 0 12C0 18.6148 5.38516 24 12 24C18.6148 24 24 18.6148 24 12C24 5.38516 18.6572 0 12 0Z" fill="#FF5A43"/>
<path d="M17.894 6.61487H14.2898C13.9081 6.31805 13.4417 6.14844 12.9329 6.14844H8.86219C7.97173 6.14844 7.29329 6.44526 6.74205 7.0389C5.46996 8.43819 5.72438 11.0248 5.72438 11.1096C5.72438 12.4241 7.12368 13.7809 8.39576 13.7809H10.0495L9.32862 15.9435C9.07421 16.8764 9.83746 17.682 9.87986 17.7244C9.96467 17.8092 10.0495 17.8516 10.1767 17.8516C10.3039 17.8516 10.3887 17.8092 10.4735 17.7244L14.5018 13.0601C14.6714 12.8905 14.7986 12.6361 14.8834 12.4241H17.8092C18.0636 12.4241 18.2332 12.2544 18.2332 12V7.0389C18.318 6.82688 18.106 6.61487 17.894 6.61487ZM10.2615 16.7915C10.1767 16.6219 10.1343 16.4523 10.1767 16.2403L11.0671 13.5265V13.3569V13.1873C11.0671 13.1449 11.0247 13.1449 11.0247 13.1025L10.9823 13.0601C10.9823 13.0601 10.9399 13.0177 10.8975 13.0177C10.8551 13.0177 10.8551 12.9753 10.8127 12.9753H8.39576C7.59011 12.9753 6.57244 11.9576 6.57244 11.1096C6.57244 11.0672 6.36042 8.77741 7.37809 7.67494C7.75972 7.25091 8.22615 7.0813 8.86219 7.0813H12.9329C13.7385 7.0813 14.2898 7.63254 14.2898 8.48059V11.6184C14.2898 11.9576 14.1625 12.3392 13.9081 12.5937L10.2615 16.7915ZM17.47 11.6184H15.1378V8.43819C15.1378 8.09897 15.053 7.80215 14.9682 7.50533H17.47V11.6184Z" fill="white"/>
</svg>
