<svg width="25" height="24" viewBox="0 0 25 24" fill="none" xmlns="http://www.w3.org/2000/svg">
<path d="M17.1165 10.8551H14.3603C14.3179 10.8551 14.3179 10.8126 14.2755 10.8126L14.2331 10.7702C14.2331 10.7702 14.1907 10.7278 14.1907 10.6854C14.1907 10.643 14.1483 10.643 14.1483 10.6006V10.431V10.2614L15.2084 7.1236C15.2932 6.86919 15.166 6.57237 15.0812 6.36035L10.7985 11.2791C10.7985 11.2791 10.7985 11.3215 10.7561 11.3215C10.4592 11.6607 10.332 12.0423 10.332 12.4664V16.113C10.332 17.0883 11.0105 17.7667 11.9857 17.7667H16.6925C17.4133 17.7667 18.0069 17.5123 18.431 17.0459C19.6182 15.7314 19.3638 13.06 19.3638 13.0176C19.3214 12.0847 18.0917 10.8551 17.1165 10.8551Z" fill="#26890D"/>
<path d="M9.39917 16.1554V12.3816H6.60059V17.2579H9.65359C9.52638 16.9611 9.39917 16.5795 9.39917 16.1554Z" fill="#26890D"/>
<path d="M12.9609 0C6.3037 0 0.960938 5.38516 0.960938 12C0.960938 18.6148 6.3461 24 12.9609 24C19.5758 24 24.9609 18.6148 24.9609 12C24.9609 5.38516 19.6182 0 12.9609 0ZM18.9821 17.682C18.3885 18.3604 17.5828 18.6996 16.6076 18.6996H11.9009C11.2648 18.6996 10.756 18.4876 10.332 18.1908H6.17649C5.92207 18.1908 5.75246 18.0212 5.75246 17.7668V12C5.75246 11.7456 5.92207 11.576 6.17649 11.576H9.56871C9.69592 11.3216 9.82313 11.0671 10.0351 10.8127C10.0351 10.8127 10.0351 10.7703 10.0775 10.7703L14.6995 5.46996C14.7843 5.38516 14.8691 5.34276 14.9963 5.34276C15.1235 5.34276 15.2083 5.38516 15.2931 5.46996C15.3355 5.51237 16.226 6.40283 15.9291 7.4629L15.0811 10.0495H17.1164C18.5581 10.0495 20.127 11.6184 20.127 13.0601C20.1694 13.1449 20.4662 16.0707 18.9821 17.682Z" fill="#26890D"/>
</svg>
