<svg width="24" height="25" viewBox="0 0 24 25" fill="none" xmlns="http://www.w3.org/2000/svg">
<path d="M12 0.677979C5.34276 0.677979 0 6.06314 0 12.678C0 19.2928 5.38516 24.678 12 24.678C18.6148 24.678 24 19.2928 24 12.678C24 6.06314 18.6572 0.677979 12 0.677979ZM12 23.8723C5.85159 23.8723 0.848057 18.8688 0.848057 12.7204C0.848057 6.57197 5.85159 1.56844 12 1.56844C18.1484 1.56844 23.1519 6.57197 23.1519 12.7204C23.1519 18.8688 18.1484 23.8723 12 23.8723Z" fill="#595959"/>
<path d="M17.894 7.29285H14.2898C13.9081 6.99603 13.4417 6.82642 12.9329 6.82642H8.86219C7.97173 6.82642 7.29329 7.12324 6.74205 7.71687C5.46996 9.11617 5.72438 11.7027 5.72438 11.7875C5.72438 13.102 7.12368 14.4589 8.39576 14.4589H10.0495L9.32862 16.6215C9.07421 17.5543 9.83746 18.36 9.87986 18.4024C9.96466 18.4872 10.0495 18.5296 10.1767 18.5296C10.3039 18.5296 10.3887 18.4872 10.4735 18.4024L14.5018 13.7381C14.6714 13.5685 14.7986 13.314 14.8834 13.102H17.8092C18.0636 13.102 18.2332 12.9324 18.2332 12.678V7.71687C18.318 7.50486 18.106 7.29285 17.894 7.29285ZM10.2615 17.4695C10.1767 17.2999 10.1343 17.1303 10.1767 16.9183L11.0671 14.2045V14.0349V13.8653C11.0671 13.8229 11.0247 13.8229 11.0247 13.7805L10.9823 13.7381C10.9823 13.7381 10.9399 13.6957 10.8975 13.6957C10.8551 13.6957 10.8551 13.6533 10.8127 13.6533H8.39576C7.59011 13.6533 6.57244 12.6356 6.57244 11.7875C6.57244 11.7451 6.36042 9.45539 7.37809 8.35292C7.75972 7.92889 8.22615 7.75928 8.86219 7.75928H12.9329C13.7385 7.75928 14.2898 8.31052 14.2898 9.15857V12.2964C14.2898 12.6356 14.1625 13.0172 13.9081 13.2716L10.2615 17.4695ZM17.47 12.2964H15.1378V9.11617C15.1378 8.77694 15.053 8.48013 14.9682 8.18331H17.47V12.2964Z" fill="#595959"/>
</svg>
