<svg width="47" height="46" viewBox="0 0 47 46" fill="none" xmlns="http://www.w3.org/2000/svg">
<g clip-path="url(#clip0_950_1272)">
<path d="M23.3487 45.96C36.0402 45.96 46.3287 35.6715 46.3287 22.98C46.3287 10.2885 36.0402 0 23.3487 0C10.6571 0 0.368652 10.2885 0.368652 22.98C0.368652 35.6715 10.6571 45.96 23.3487 45.96Z" fill="#DFEDFF"/>
<path d="M13.887 17.5889V31.1344H19.1564V33.573C17.173 33.573 15.1581 33.6947 13.1703 33.5279C11.9306 33.4243 11.259 32.356 11.25 30.8639C11.2184 25.6035 11.2139 20.3431 11.25 15.0826C11.2635 13.3066 12.2732 12.2428 14.0538 12.2338C20.2518 12.1887 26.4498 12.1932 32.6478 12.2338C34.4464 12.2428 35.4471 13.3247 35.4561 15.1998C35.4876 20.4242 35.4876 25.6441 35.4561 30.8684C35.4471 32.5678 34.5455 33.6001 32.8822 33.7082C31.1332 33.8209 29.3707 33.7353 27.5406 33.7353V31.184H32.8146V17.5979H13.887V17.5889Z" fill="#0671F0"/>
<path d="M24.6874 33.6902H22.0775V25.6756H18.5615C20.2158 24.0167 21.8611 22.3669 23.4523 20.7712C24.9308 22.2633 26.5536 23.9041 28.2259 25.5944H24.6919V33.6902H24.6874Z" fill="#0671F0"/>
</g>
<defs>
<clipPath id="clip0_950_1272">
<rect width="45.96" height="45.96" fill="white" transform="translate(0.368652)"/>
</clipPath>
</defs>
</svg>
