<svg width="7" height="16" viewBox="0 0 7 16" fill="none" xmlns="http://www.w3.org/2000/svg">
<path d="M2.6349 0.707143C2.19713 1.14491 1.96366 1.72859 1.96366 2.37065L1.96366 12.0598C1.96366 12.8186 2.57653 13.4315 3.33532 13.4315C3.68553 13.4315 4.06493 13.2856 4.32759 13.0229C4.59025 12.7603 4.70698 12.41 4.73617 12.0306L4.73617 5.25989C4.73617 5.02642 4.56106 4.85131 4.32759 4.85131C4.09411 4.85131 3.91901 5.02642 3.91901 5.25989L3.91901 12.0306C3.91901 12.3225 3.65635 12.5852 3.36451 12.5852C3.07266 12.5852 2.81 12.3225 2.81 12.0307L2.81 2.34146C2.83919 1.49512 3.51042 0.82388 4.32758 0.82388C5.14475 0.82388 5.84517 1.5243 5.84517 2.34146L5.84517 12.0306C5.84517 13.4315 4.73617 14.5405 3.36451 14.5113C1.96366 14.5113 0.854656 13.4023 0.88384 12.0307L0.883838 5.25989C0.883839 5.02642 0.737917 4.82213 0.504443 4.82213C0.270968 4.82213 0.0666781 4.96805 0.0666784 5.20152L0.0666783 5.25989L0.0666795 12.0307C0.0666797 13.8401 1.52589 15.3577 3.39369 15.3577C5.26148 15.3577 6.7207 13.8984 6.7207 12.0306L6.7207 2.34146C6.7207 1.05735 5.67006 0.00671922 4.38595 0.00671914C3.68553 0.00671966 3.07266 0.269379 2.6349 0.707143Z" fill="#757575"/>
</svg>
